<mxfile host="app.diagrams.net" modified="2020-11-02T03:29:48.940Z" agent="5.0 (Windows)" etag="DXnFo7Ituv3x3JCHW-32" version="13.8.8" type="github">
  <diagram id="R_2mhYFuzPCaES9viJlG" name="Page-1">
    <mxGraphModel dx="782" dy="707" grid="1" gridSize="10" guides="1" tooltips="1" connect="1" arrows="1" fold="1" page="1" pageScale="1" pageWidth="850" pageHeight="1100" math="0" shadow="0">
      <root>
        <mxCell id="0" />
        <mxCell id="1" parent="0" />
        <mxCell id="6Os5_huRBnSquWXQgzSs-3" value="" style="shape=parallelogram;html=1;strokeWidth=2;perimeter=parallelogramPerimeter;whiteSpace=wrap;rounded=1;arcSize=12;size=0.23;" vertex="1" parent="1">
          <mxGeometry x="350" y="330" width="100" height="60" as="geometry" />
        </mxCell>
      </root>
    </mxGraphModel>
  </diagram>
</mxfile>
